<svg width="843" height="278" viewBox="0 0 843 278" fill="none" xmlns="http://www.w3.org/2000/svg">
<path fill-rule="evenodd" clip-rule="evenodd" d="M19.277 211.658C7.15453 215.54 0 220.325 0 225.5C0 238.479 44.9954 249 100.5 249C156.005 249 201 238.479 201 225.5C201 220.325 193.845 215.54 181.723 211.658C177.606 214.435 172.915 216.994 167.737 219.291C168.183 219.391 168.623 219.492 169.06 219.594C177.068 221.467 183.011 223.533 186.875 225.5C183.011 227.467 177.068 229.533 169.06 231.406C151.911 235.416 127.666 238 100.5 238C73.3337 238 49.0888 235.416 31.9403 231.406C23.9322 229.533 17.9892 227.467 14.1247 225.5C17.9892 223.533 23.9322 221.467 31.9403 219.594C32.3766 219.492 32.8174 219.391 33.2627 219.291C28.0848 216.994 23.3944 214.435 19.277 211.658Z" fill="#C4C4C4"/>
<path fill-rule="evenodd" clip-rule="evenodd" d="M40.4261 188.779C32.4674 187.163 25.7338 188.018 25.0964 190.832C24.5087 193.427 29.2937 196.835 36.1939 198.994C32.2706 200.682 29.8516 202.78 30.1317 204.631C30.5368 207.308 36.4483 208.573 43.8542 207.763C42.7373 209.209 42.2887 210.523 42.7057 211.52C43.5599 213.563 47.8102 213.713 53.1912 212.191C52.5388 213.504 52.389 214.679 52.8609 215.565C54.2755 218.222 60.7468 217.288 67.3028 213.481C70.668 211.526 73.4056 209.192 75.0818 207.024C75.4683 206.964 75.8048 206.821 76.0828 206.589C76.8047 205.985 77.0459 204.849 76.8674 203.356C76.9403 202.763 76.8628 202.226 76.6182 201.767C76.5832 201.701 76.5454 201.638 76.5042 201.576C75.6364 198.434 73.4612 194.326 70.3449 190.292C64.881 183.218 58.5799 179.035 56.2827 180.957C55.1068 181.94 55.2066 184.334 56.3173 187.386C56.1288 187.282 55.9388 187.178 55.747 187.076C47.9772 182.922 40.5619 181.752 39.1985 184.466C38.6574 185.542 39.1498 187.069 40.4261 188.779Z" fill="#488334"/>
<path fill-rule="evenodd" clip-rule="evenodd" d="M96.7788 187.778C87.0933 186.242 80.383 185.57 80.2491 186.314C75.6956 186.055 71.8049 189.479 71.5661 193.953L70.7012 210.168C70.4626 214.643 73.9657 218.485 78.5192 218.743C78.6234 219.224 83.2572 219.348 90.3832 219.162C90.1854 217.858 89.9862 216.552 89.8203 215.257C89.7986 215.084 89.7682 215.006 89.757 214.668C89.7288 213.816 90.2263 213.202 90.7673 213.386C91.4318 213.612 91.7199 214.905 91.7199 214.905C91.8898 216.281 92.0935 217.688 92.2963 219.107C98.9933 218.894 107.515 218.44 116.435 217.777C116.059 214.991 115.527 212.117 115.118 209.301C115.093 209.13 115.066 209.051 115.042 208.715C114.981 207.87 115.333 207.283 115.755 207.489C116.275 207.742 116.556 209.036 116.556 209.036C116.953 211.837 117.463 214.768 117.854 217.67C124.425 217.168 131.171 216.553 137.528 215.84C137.172 212.883 136.602 209.821 136.184 206.822C136.16 206.65 136.132 206.572 136.112 206.234C136.063 205.387 136.465 204.791 136.929 204.989C137.499 205.233 137.782 206.526 137.782 206.526C138.183 209.489 138.721 212.594 139.096 215.661C155.743 213.729 169.342 211.109 169.459 208.036C169.612 204.001 147.679 197.934 125.524 193.188C125.604 194.66 125.626 196.108 125.562 197.507C125.53 198.315 125.529 199.053 125.502 199.83C125.466 200.896 125.479 202.019 125.183 202.709C125.039 203.044 124.82 203.161 124.594 203.106C124.285 203.179 123.92 202.872 123.707 202.317C123.637 202.138 123.602 202.042 123.54 201.682C123.455 201.068 123.651 200.39 123.651 200.39C123.786 199.069 123.733 197.88 123.823 196.029C123.873 194.991 123.864 193.919 123.812 192.824C119.548 191.923 115.298 191.076 111.215 190.304C111.213 190.473 111.209 190.643 111.204 190.815C111.187 191.438 111.189 192.079 111.128 192.647C111.149 192.947 111.121 193.231 111.03 193.452C111 193.524 110.966 193.587 110.928 193.639C110.894 193.759 110.853 193.871 110.804 193.975C110.46 194.711 109.706 194.475 109.33 193.663C109.249 193.487 109.206 193.393 109.131 193.036C109.028 192.424 109.245 191.731 109.245 191.731C109.308 191.134 109.328 190.565 109.338 189.952C105.674 189.272 102.169 188.658 98.9409 188.127C98.966 189.324 98.9333 190.506 98.819 191.662C98.7458 192.483 98.7189 193.23 98.6542 194.021C98.6171 194.475 98.5922 194.939 98.5427 195.378C98.5963 195.765 98.5595 196.149 98.4037 196.435C98.3631 196.51 98.3178 196.574 98.2689 196.629C98.2204 196.751 98.1645 196.866 98.0996 196.973C97.6379 197.731 96.7143 197.527 96.2873 196.725C96.1948 196.551 96.1467 196.458 96.0706 196.101C95.9715 195.488 96.2735 194.779 96.2735 194.779C96.5118 193.426 96.4773 192.228 96.6694 190.344C96.7549 189.504 96.787 188.648 96.7788 187.778Z" fill="#E6853D"/>
<path fill-rule="evenodd" clip-rule="evenodd" d="M50.9695 138.066C43.6804 134.655 36.9522 133.938 35.6252 136.539C34.4018 138.936 38.1694 143.364 44.2978 147.061C40.0772 147.806 37.208 149.296 37.0116 151.168C36.7278 153.874 42.1257 156.47 49.4927 157.386C48.0475 158.54 47.2818 159.719 47.4334 160.789C47.7438 162.98 51.8168 164.105 57.4051 163.859C56.4426 164.99 56.0013 166.102 56.234 167.076C56.9312 169.996 63.4256 170.575 70.7275 168.368C74.4755 167.236 77.7124 165.588 79.881 163.857C80.2698 163.888 80.6314 163.826 80.9589 163.663C81.8096 163.24 82.3294 162.187 82.5337 160.689C82.754 160.127 82.8146 159.585 82.694 159.08C82.6767 159.008 82.6561 158.937 82.6317 158.868C82.5857 155.601 81.5192 151.089 79.5237 146.434C76.0248 138.271 70.9867 132.736 68.28 134.083C66.8943 134.772 66.3865 137.132 66.6904 140.366C66.5345 140.221 66.3767 140.076 66.2172 139.932C59.7513 134.088 52.8749 131.238 50.8712 133.572C50.0762 134.499 50.1669 136.103 50.9695 138.066Z" fill="#488334"/>
<path fill-rule="evenodd" clip-rule="evenodd" d="M105.854 150.473C96.8292 146.771 90.4776 144.584 90.1599 145.271C85.7998 143.979 81.1553 146.392 79.7947 150.657L74.8645 166.114C73.5041 170.379 75.9393 174.892 80.2994 176.185C80.2795 176.672 84.7514 177.854 91.7235 179.308C91.8602 178.003 91.9961 176.696 92.1615 175.408C92.1839 175.236 92.174 175.154 92.2485 174.825C92.4359 173.997 93.0742 173.518 93.5536 173.819C94.1423 174.19 94.0964 175.503 94.0964 175.503C93.9143 176.871 93.7576 178.276 93.5967 179.692C100.159 181.022 108.554 182.537 117.391 183.941C117.728 181.164 117.935 178.268 118.248 175.456C118.268 175.284 118.261 175.202 118.322 174.872C118.476 174.042 118.966 173.556 119.325 173.852C119.766 174.216 119.713 175.529 119.713 175.529C119.392 178.324 119.148 181.271 118.796 184.162C125.31 185.183 132.02 186.136 138.378 186.904C138.778 183.968 138.996 180.88 139.346 177.889C139.367 177.718 139.359 177.636 139.425 177.306C139.59 176.477 140.132 175.993 140.532 176.291C141.025 176.657 140.974 177.97 140.974 177.97C140.616 180.922 140.356 184.044 139.947 187.09C156.612 189.04 170.489 189.627 171.377 186.686C172.544 182.827 152.759 171.942 132.426 162.283C132.131 163.723 131.788 165.126 131.373 166.462C131.138 167.235 130.951 167.947 130.729 168.691C130.425 169.712 130.154 170.8 129.692 171.398C129.469 171.688 129.225 171.751 129.02 171.646C128.701 171.646 128.424 171.266 128.357 170.681C128.335 170.492 128.324 170.391 128.354 170.03C128.427 169.417 128.788 168.808 128.788 168.808C129.253 167.563 129.501 166.403 130.055 164.637C130.366 163.646 130.627 162.609 130.854 161.539C126.937 159.693 123.02 157.901 119.247 156.22C119.202 156.383 119.156 156.547 119.108 156.711C118.933 157.309 118.774 157.928 118.572 158.462C118.516 158.757 118.417 159.025 118.273 159.217C118.225 159.28 118.177 159.332 118.127 159.375C118.063 159.482 117.995 159.581 117.922 159.67C117.402 160.302 116.729 159.901 116.568 159.031C116.533 158.843 116.516 158.742 116.533 158.38C116.587 157.766 116.972 157.147 116.972 157.147C117.184 156.584 117.347 156.04 117.512 155.451C114.122 153.954 110.871 152.558 107.868 151.306C107.59 152.467 107.26 153.6 106.858 154.69C106.579 155.467 106.365 156.182 106.102 156.93C105.952 157.36 105.811 157.802 105.652 158.215C105.606 158.601 105.474 158.963 105.25 159.204C105.192 159.266 105.132 159.318 105.07 159.36C104.992 159.467 104.909 159.565 104.819 159.653C104.179 160.279 103.333 159.87 103.12 158.998C103.074 158.809 103.051 158.708 103.067 158.346C103.125 157.732 103.598 157.117 103.598 157.117C104.17 155.865 104.439 154.7 105.101 152.925C105.396 152.135 105.643 151.315 105.854 150.473Z" fill="#E6853D"/>
<path fill-rule="evenodd" clip-rule="evenodd" d="M73.465 87.4084C67.5 82.0816 61.2782 79.4955 59.2441 81.6129C57.3691 83.5645 59.6678 88.872 64.439 94.145C60.1846 93.6669 57.0029 94.2852 56.2643 96.0233C55.1966 98.5361 59.5932 102.548 66.3673 105.505C64.6458 106.203 63.5667 107.117 63.3968 108.185C63.0487 110.372 66.6118 112.6 72.0269 113.943C70.7738 114.755 70.0246 115.696 69.9605 116.695C69.7678 119.689 75.8065 122.078 83.4369 122.025C87.3537 121.998 90.9333 121.333 93.516 120.286C93.8786 120.426 94.2426 120.468 94.6036 120.405C95.5415 120.239 96.3483 119.377 96.9846 117.999C97.3607 117.522 97.5781 117.02 97.6114 116.502C97.616 116.429 97.6172 116.355 97.6142 116.282C98.5318 113.138 98.8398 108.514 98.3021 103.489C97.3594 94.6786 94.1713 87.9526 91.1873 88.4786C89.6597 88.7478 88.4796 90.8659 87.8182 94.0513C87.7119 93.8681 87.6036 93.685 87.4936 93.5017C83.0318 86.0754 77.2961 81.4032 74.6934 83.0746C73.6608 83.7377 73.2754 85.3004 73.465 87.4084Z" fill="#488334"/>
<path fill-rule="evenodd" clip-rule="evenodd" d="M122.467 114.64C114.96 108.565 109.551 104.693 109.041 105.268C105.265 102.812 100.102 103.85 97.5181 107.585L88.1551 121.122C85.5713 124.858 86.5389 129.885 90.3146 132.342C90.1489 132.807 94.0647 135.188 100.287 138.524C100.81 137.304 101.334 136.082 101.88 134.885C101.953 134.726 101.968 134.644 102.138 134.347C102.567 133.6 103.32 133.316 103.688 133.74C104.138 134.26 103.699 135.514 103.699 135.514C103.113 136.783 102.541 138.094 101.961 139.415C107.828 142.519 115.392 146.309 123.41 150.116C124.568 147.532 125.639 144.796 126.784 142.171C126.854 142.011 126.873 141.931 127.031 141.629C127.427 140.872 128.042 140.539 128.296 140.924C128.607 141.397 128.161 142.648 128.161 142.648C127.013 145.255 125.893 148.029 124.686 150.72C130.601 153.512 136.724 156.293 142.566 158.798C143.832 156.078 144.969 153.161 146.205 150.374C146.276 150.214 146.293 150.133 146.456 149.833C146.863 149.079 147.526 148.763 147.819 149.161C148.179 149.651 147.735 150.904 147.735 150.904C146.505 153.651 145.316 156.589 144.009 159.413C159.341 165.919 172.419 170.336 174.154 167.747C176.43 164.348 160.808 148.361 144.293 133.404C143.578 134.711 142.828 135.968 142.029 137.141C141.572 137.821 141.179 138.456 140.743 139.112C140.145 140.012 139.559 140.986 138.938 141.435C138.637 141.652 138.385 141.645 138.221 141.487C137.916 141.398 137.766 140.955 137.877 140.373C137.913 140.184 137.933 140.084 138.071 139.744C138.326 139.173 138.854 138.686 138.854 138.686C139.672 137.614 140.259 136.565 141.32 135.016C141.915 134.146 142.477 133.219 143.015 132.25C139.83 129.383 136.627 126.567 133.53 123.899C133.437 124.044 133.344 124.189 133.248 124.334C132.902 124.862 132.563 125.415 132.209 125.874C132.068 126.143 131.892 126.374 131.697 126.519C131.633 126.566 131.57 126.603 131.51 126.63C131.416 126.716 131.322 126.793 131.225 126.859C130.538 127.323 130.016 126.75 130.124 125.867C130.147 125.675 130.161 125.574 130.287 125.229C130.523 124.651 131.078 124.161 131.078 124.161C131.449 123.678 131.769 123.198 132.104 122.676C129.316 120.292 126.631 118.043 124.139 116.002C123.524 117.045 122.868 118.046 122.155 118.985C121.656 119.657 121.235 120.287 120.76 120.936C120.486 121.309 120.218 121.696 119.942 122.05C119.783 122.409 119.547 122.722 119.261 122.892C119.186 122.936 119.113 122.969 119.042 122.993C118.935 123.074 118.826 123.146 118.714 123.206C117.914 123.631 117.229 123.002 117.288 122.102C117.301 121.907 117.309 121.804 117.434 121.459C117.674 120.883 118.311 120.421 118.311 120.421C119.235 119.372 119.842 118.324 121.009 116.796C121.528 116.115 122.011 115.393 122.467 114.64Z" fill="#E6853D"/>
<path fill-rule="evenodd" clip-rule="evenodd" d="M111.136 47.3256C106.817 40.6114 101.519 36.4669 98.9946 37.9639C96.668 39.3437 97.4627 45.064 100.647 51.4088C96.6789 49.8168 93.4507 49.5656 92.2752 51.0421C90.5759 53.1768 93.7363 58.2084 99.4674 62.8567C97.6237 63.0706 96.3405 63.6635 95.8917 64.646C94.9721 66.6588 97.8069 69.7511 102.661 72.4837C101.238 72.9323 100.265 73.6387 99.9365 74.583C98.9507 77.4146 104.126 81.32 111.486 83.299C115.263 84.3148 118.887 84.6267 121.653 84.3068C121.965 84.5375 122.304 84.6752 122.668 84.7102C123.615 84.8005 124.623 84.1853 125.603 83.028C126.093 82.6691 126.436 82.2436 126.607 81.754C126.631 81.6842 126.652 81.6136 126.668 81.5424C128.392 78.7603 129.924 74.391 130.749 69.4113C132.196 60.6802 130.924 53.3579 127.911 53.0704C126.368 52.9232 124.666 54.648 123.178 57.5382C123.125 57.3336 123.07 57.1285 123.013 56.9228C120.702 48.5876 116.429 42.5645 113.477 43.4809C112.305 43.8444 111.517 45.2461 111.136 47.3256Z" fill="#488334"/>
<path fill-rule="evenodd" clip-rule="evenodd" d="M150.908 86.2923C145.33 78.4743 141.173 73.3278 140.527 73.7469C137.559 70.391 132.311 70.0335 128.815 72.949L116.147 83.5146C112.652 86.4304 112.223 91.5221 115.191 94.878C114.906 95.2815 118.029 98.6013 123.113 103.447C123.946 102.41 124.78 101.372 125.629 100.364C125.742 100.23 125.779 100.155 126.023 99.9138C126.637 99.3077 127.439 99.232 127.678 99.7363C127.971 100.356 127.209 101.447 127.209 101.447C126.302 102.514 125.397 103.625 124.482 104.744C129.287 109.271 135.539 114.906 142.223 120.675C144.035 118.493 145.805 116.142 147.617 113.918C147.727 113.782 147.767 113.709 148 113.461C148.587 112.836 149.268 112.677 149.408 113.114C149.58 113.651 148.812 114.738 148.812 114.738C147.003 116.944 145.176 119.32 143.287 121.592C148.222 125.832 153.36 130.117 158.303 134.062C160.256 131.777 162.139 129.27 164.082 126.912C164.193 126.777 164.232 126.704 164.469 126.458C165.065 125.84 165.788 125.71 165.962 126.17C166.176 126.736 165.41 127.824 165.41 127.824C163.484 130.144 161.546 132.659 159.525 135.033C172.515 145.321 183.902 153.008 186.27 150.972C189.379 148.3 178.673 128.812 166.831 110.081C165.79 111.151 164.729 112.164 163.642 113.083C163.019 113.617 162.469 114.124 161.872 114.641C161.053 115.35 160.226 116.133 159.508 116.402C159.159 116.532 158.919 116.459 158.804 116.264C158.535 116.098 158.51 115.633 158.775 115.101C158.86 114.93 158.907 114.838 159.131 114.547C159.53 114.065 160.17 113.735 160.17 113.735C161.247 112.919 162.096 112.063 163.535 110.851C164.343 110.171 165.134 109.426 165.914 108.635C163.625 105.04 161.305 101.489 159.047 98.108C158.919 98.2226 158.79 98.3375 158.659 98.4526C158.183 98.8694 157.707 99.3124 157.243 99.661C157.034 99.8826 156.802 100.058 156.575 100.147C156.501 100.176 156.43 100.195 156.365 100.205C156.252 100.263 156.14 100.312 156.03 100.35C155.243 100.616 154.895 99.9274 155.239 99.1063C155.313 98.9283 155.353 98.8339 155.567 98.5352C155.951 98.0414 156.617 97.7159 156.617 97.7159C157.106 97.3484 157.543 96.9708 158.006 96.5557C155.969 93.5294 153.994 90.6601 152.149 88.0419C151.275 88.8836 150.373 89.6748 149.434 90.3914C148.771 90.9063 148.197 91.4021 147.563 91.9015C147.2 92.1885 146.837 92.4904 146.476 92.7584C146.225 93.0626 145.914 93.3013 145.593 93.3897C145.509 93.4126 145.43 93.4254 145.355 93.4291C145.23 93.4794 145.106 93.5198 144.981 93.5479C144.097 93.7476 143.608 92.9623 143.909 92.1119C143.974 91.9277 144.009 91.8301 144.223 91.5309C144.61 91.0396 145.347 90.7623 145.347 90.7623C146.519 89.9965 147.387 89.147 148.923 87.9833C149.607 87.4647 150.266 86.8971 150.908 86.2923Z" fill="#E6853D"/>
<path fill-rule="evenodd" clip-rule="evenodd" d="M156.962 17.8304C154.438 10.274 150.33 4.96668 147.517 5.79992C144.923 6.56783 144.279 12.3011 145.796 19.2227C142.347 16.7121 139.283 15.6804 137.78 16.8231C135.607 18.4752 137.424 24.1194 141.826 30.0202C139.988 29.7771 138.599 30.0378 137.921 30.8796C136.534 32.6041 138.515 36.2908 142.541 40.1225C141.052 40.2092 139.935 40.6557 139.384 41.4899C137.73 43.9911 141.776 49.0368 148.415 52.7505C151.822 54.6567 155.254 55.8438 158.011 56.2095C158.256 56.509 158.551 56.7252 158.895 56.848C159.79 57.1668 160.917 56.817 162.153 55.9359C162.715 55.7078 163.153 55.3798 163.439 54.9473C163.48 54.8856 163.517 54.8223 163.551 54.7574C165.907 52.4843 168.47 48.6275 170.499 44.0069C174.057 35.9054 174.634 28.5044 171.787 27.4901C170.329 26.9708 168.255 28.2254 166.1 30.6607C166.099 30.4495 166.096 30.2375 166.092 30.0243C165.913 21.3886 163.263 14.5126 160.178 14.679C158.954 14.745 157.844 15.9097 156.962 17.8304Z" fill="#488334"/>
<path fill-rule="evenodd" clip-rule="evenodd" d="M185.579 65.1249C182.105 56.2023 179.349 50.2102 178.621 50.4569C176.576 46.4865 171.59 44.8558 167.495 46.8177L152.655 53.9277C148.56 55.8899 146.896 60.7064 148.942 64.6768C148.567 64.9969 150.772 68.9705 154.498 74.8988C155.558 74.101 156.619 73.3013 157.687 72.5349C157.829 72.4332 157.883 72.37 158.178 72.1967C158.921 71.7613 159.715 71.8845 159.822 72.4304C159.953 73.1009 158.949 73.969 158.949 73.969C157.81 74.778 156.662 75.6302 155.503 76.4877C159.038 82.0407 163.699 89.018 168.745 96.2308C171.033 94.5655 173.32 92.7268 175.618 91.02C175.758 90.9161 175.814 90.8554 176.101 90.6722C176.821 90.212 177.519 90.2256 177.547 90.6822C177.581 91.2434 176.572 92.106 176.572 92.106C174.282 93.7954 171.932 95.6436 169.549 97.3773C173.279 102.684 177.195 108.084 181.006 113.108C183.455 111.378 185.891 109.415 188.347 107.612C188.488 107.509 188.543 107.447 188.833 107.268C189.561 106.816 190.292 106.868 190.347 107.355C190.415 107.954 189.408 108.819 189.408 108.819C186.976 110.59 184.485 112.546 181.948 114.346C191.982 127.47 201.104 137.688 203.894 136.301C207.555 134.479 201.988 113.022 195.135 92.0171C193.866 92.7961 192.592 93.5153 191.316 94.1374C190.582 94.501 189.926 94.8568 189.222 95.2103C188.256 95.6951 187.265 96.2493 186.504 96.3329C186.135 96.3735 185.921 96.2447 185.857 96.0274C185.638 95.8015 185.729 95.3455 186.115 94.8967C186.24 94.7515 186.307 94.6749 186.596 94.4484C187.1 94.0801 187.799 93.9173 187.799 93.9173C189.041 93.3926 190.071 92.773 191.76 91.9542C192.708 91.4948 193.655 90.9682 194.603 90.3951C193.273 86.3591 191.902 82.3592 190.548 78.5384C190.396 78.6179 190.243 78.6974 190.088 78.7764C189.526 79.0628 188.957 79.3744 188.423 79.5977C188.166 79.7607 187.899 79.874 187.658 79.9037C187.579 79.9134 187.506 79.9148 187.441 79.9087C187.317 79.9373 187.197 79.9572 187.081 79.9664C186.255 80.0315 186.088 79.2804 186.621 78.5707C186.737 78.4168 186.799 78.3356 187.079 78.0992C187.571 77.7159 188.295 77.5645 188.295 77.5645C188.858 77.3288 189.373 77.0709 189.923 76.7832C188.696 73.3593 187.491 70.1023 186.349 67.1197C185.298 67.7195 184.232 68.2633 183.148 68.7258C182.381 69.0613 181.704 69.3998 180.969 69.7274C180.547 69.9157 180.123 70.1188 179.708 70.2894C179.39 70.5219 179.031 70.6764 178.699 70.6832C178.612 70.6848 178.532 70.6778 178.459 70.6631C178.326 70.6812 178.196 70.6897 178.069 70.6865C177.165 70.6629 176.885 69.7841 177.384 69.0357C177.492 68.8736 177.551 68.7881 177.83 68.551C178.325 68.1711 179.106 68.0835 179.106 68.0835C180.427 67.6304 181.475 67.0218 183.245 66.2731C184.033 65.9394 184.811 65.5523 185.579 65.1249Z" fill="#E6853D"/>
<path d="M234.307 191.523C234.307 190.091 233.949 188.675 233.232 187.275C232.516 185.876 231.133 184.59 229.082 183.418C227.064 182.246 224.085 181.253 220.146 180.439C217.217 179.788 214.596 179.056 212.285 178.242C210.007 177.428 208.086 176.452 206.523 175.312C204.961 174.173 203.773 172.806 202.959 171.211C202.145 169.616 201.738 167.728 201.738 165.547C201.738 163.594 202.161 161.755 203.008 160.029C203.887 158.271 205.124 156.742 206.719 155.439C208.346 154.105 210.299 153.063 212.578 152.314C214.889 151.566 217.477 151.191 220.342 151.191C224.411 151.191 227.894 151.891 230.791 153.291C233.721 154.658 235.951 156.53 237.48 158.906C239.043 161.283 239.824 163.968 239.824 166.963H234.014C234.014 165.14 233.477 163.415 232.402 161.787C231.361 160.16 229.814 158.825 227.764 157.783C225.745 156.742 223.271 156.221 220.342 156.221C217.314 156.221 214.857 156.676 212.969 157.588C211.081 158.499 209.697 159.655 208.818 161.055C207.972 162.454 207.549 163.903 207.549 165.4C207.549 166.572 207.728 167.646 208.086 168.623C208.477 169.567 209.16 170.446 210.137 171.26C211.146 172.074 212.578 172.839 214.434 173.555C216.289 174.271 218.698 174.971 221.66 175.654C225.924 176.598 229.408 177.754 232.109 179.121C234.844 180.456 236.862 182.116 238.164 184.102C239.466 186.055 240.117 188.431 240.117 191.23C240.117 193.411 239.661 195.413 238.75 197.236C237.839 199.027 236.52 200.573 234.795 201.875C233.102 203.177 231.051 204.186 228.643 204.902C226.266 205.618 223.597 205.977 220.635 205.977C216.175 205.977 212.399 205.244 209.307 203.779C206.247 202.282 203.919 200.329 202.324 197.92C200.762 195.479 199.98 192.891 199.98 190.156H205.791C205.986 192.891 206.849 195.055 208.379 196.65C209.909 198.213 211.781 199.32 213.994 199.971C216.24 200.622 218.454 200.947 220.635 200.947C223.63 200.947 226.136 200.508 228.154 199.629C230.173 198.75 231.702 197.594 232.744 196.162C233.786 194.73 234.307 193.184 234.307 191.523ZM259.16 163.447V205H253.35V152.168H258.916L259.16 163.447ZM257.842 175.312L255.254 173.848C255.449 170.723 256.084 167.793 257.158 165.059C258.232 162.324 259.681 159.915 261.504 157.832C263.359 155.749 265.524 154.121 267.998 152.949C270.505 151.777 273.271 151.191 276.299 151.191C278.936 151.191 281.296 151.549 283.379 152.266C285.462 152.982 287.236 154.121 288.701 155.684C290.166 157.246 291.273 159.248 292.021 161.689C292.803 164.131 293.193 167.109 293.193 170.625V205H287.334V170.576C287.334 166.93 286.829 164.082 285.82 162.031C284.811 159.948 283.379 158.467 281.523 157.588C279.668 156.709 277.471 156.27 274.932 156.27C272.132 156.27 269.674 156.888 267.559 158.125C265.475 159.329 263.717 160.908 262.285 162.861C260.885 164.782 259.811 166.849 259.062 169.062C258.314 171.243 257.907 173.327 257.842 175.312ZM340.459 195.527V168.281C340.459 165.775 339.938 163.61 338.896 161.787C337.855 159.964 336.325 158.564 334.307 157.588C332.288 156.611 329.798 156.123 326.836 156.123C324.102 156.123 321.66 156.611 319.512 157.588C317.396 158.532 315.719 159.818 314.482 161.445C313.278 163.04 312.676 164.814 312.676 166.768L306.816 166.719C306.816 164.733 307.305 162.812 308.281 160.957C309.258 159.102 310.641 157.441 312.432 155.977C314.222 154.512 316.354 153.356 318.828 152.51C321.335 151.631 324.085 151.191 327.08 151.191C330.856 151.191 334.176 151.826 337.041 153.096C339.938 154.365 342.201 156.27 343.828 158.809C345.456 161.348 346.27 164.538 346.27 168.379V193.916C346.27 195.739 346.4 197.627 346.66 199.58C346.953 201.533 347.36 203.145 347.881 204.414V205H341.68C341.289 203.828 340.98 202.363 340.752 200.605C340.557 198.815 340.459 197.122 340.459 195.527ZM341.826 174.238L341.924 178.73H330.449C327.454 178.73 324.769 179.007 322.393 179.561C320.049 180.081 318.063 180.863 316.436 181.904C314.808 182.913 313.555 184.134 312.676 185.566C311.829 186.999 311.406 188.626 311.406 190.449C311.406 192.337 311.878 194.062 312.822 195.625C313.799 197.188 315.166 198.441 316.924 199.385C318.714 200.296 320.83 200.752 323.271 200.752C326.527 200.752 329.391 200.15 331.865 198.945C334.372 197.741 336.439 196.162 338.066 194.209C339.694 192.256 340.785 190.124 341.338 187.812L343.877 191.182C343.454 192.809 342.673 194.486 341.533 196.211C340.426 197.904 338.978 199.499 337.188 200.996C335.397 202.461 333.281 203.665 330.84 204.609C328.431 205.521 325.697 205.977 322.637 205.977C319.186 205.977 316.175 205.326 313.604 204.023C311.064 202.721 309.079 200.947 307.646 198.701C306.247 196.423 305.547 193.851 305.547 190.986C305.547 188.382 306.1 186.055 307.207 184.004C308.314 181.921 309.909 180.163 311.992 178.73C314.108 177.266 316.647 176.159 319.609 175.41C322.604 174.629 325.957 174.238 329.668 174.238H341.826ZM381.426 200.947C383.9 200.947 386.211 200.492 388.359 199.58C390.54 198.636 392.331 197.253 393.73 195.43C395.163 193.574 395.977 191.312 396.172 188.643H401.738C401.576 191.995 400.55 194.99 398.662 197.627C396.807 200.231 394.365 202.282 391.338 203.779C388.343 205.244 385.039 205.977 381.426 205.977C377.747 205.977 374.492 205.309 371.66 203.975C368.861 202.64 366.517 200.785 364.629 198.408C362.741 195.999 361.309 193.2 360.332 190.01C359.388 186.787 358.916 183.32 358.916 179.609V177.559C358.916 173.848 359.388 170.397 360.332 167.207C361.309 163.984 362.741 161.185 364.629 158.809C366.517 156.4 368.861 154.528 371.66 153.193C374.46 151.859 377.699 151.191 381.377 151.191C385.153 151.191 388.538 151.956 391.533 153.486C394.561 155.016 396.969 157.181 398.76 159.98C400.583 162.78 401.576 166.1 401.738 169.941H396.172C396.009 167.109 395.26 164.668 393.926 162.617C392.591 160.566 390.833 158.988 388.652 157.881C386.471 156.774 384.046 156.221 381.377 156.221C378.382 156.221 375.827 156.807 373.711 157.979C371.595 159.118 369.87 160.697 368.535 162.715C367.233 164.701 366.273 166.979 365.654 169.551C365.036 172.09 364.727 174.759 364.727 177.559V179.609C364.727 182.441 365.02 185.143 365.605 187.715C366.224 190.254 367.184 192.516 368.486 194.502C369.821 196.488 371.546 198.066 373.662 199.238C375.811 200.378 378.398 200.947 381.426 200.947ZM419.316 130V205H413.506V130H419.316ZM452.471 152.168L427.764 176.68L417.266 186.836L416.387 181.123L424.834 171.992L445.098 152.168H452.471ZM447.393 205L425.322 177.559L428.545 172.529L454.424 205H447.393ZM458.086 179.121V178.096C458.086 174.222 458.639 170.658 459.746 167.402C460.853 164.115 462.464 161.266 464.58 158.857C466.696 156.449 469.3 154.577 472.393 153.242C475.485 151.875 479.033 151.191 483.037 151.191C487.041 151.191 490.605 151.875 493.73 153.242C496.855 154.577 499.476 156.449 501.592 158.857C503.74 161.266 505.368 164.115 506.475 167.402C507.581 170.658 508.135 174.222 508.135 178.096V179.121C508.135 182.962 507.581 186.527 506.475 189.814C505.368 193.07 503.74 195.918 501.592 198.359C499.476 200.768 496.872 202.64 493.779 203.975C490.687 205.309 487.139 205.977 483.135 205.977C479.131 205.977 475.566 205.309 472.441 203.975C469.349 202.64 466.729 200.768 464.58 198.359C462.464 195.918 460.853 193.07 459.746 189.814C458.639 186.527 458.086 182.962 458.086 179.121ZM472.148 178.096V179.121C472.148 181.335 472.344 183.402 472.734 185.322C473.125 187.243 473.743 188.936 474.59 190.4C475.469 191.833 476.608 192.956 478.008 193.77C479.408 194.583 481.117 194.99 483.135 194.99C485.088 194.99 486.764 194.583 488.164 193.77C489.564 192.956 490.687 191.833 491.533 190.4C492.38 188.936 492.998 187.243 493.389 185.322C493.812 183.402 494.023 181.335 494.023 179.121V178.096C494.023 175.947 493.812 173.929 493.389 172.041C492.998 170.12 492.363 168.428 491.484 166.963C490.638 165.465 489.515 164.294 488.115 163.447C486.715 162.601 485.023 162.178 483.037 162.178C481.051 162.178 479.359 162.601 477.959 163.447C476.592 164.294 475.469 165.465 474.59 166.963C473.743 168.428 473.125 170.12 472.734 172.041C472.344 173.929 472.148 175.947 472.148 178.096ZM533.965 194.746L545.684 152.168H560.381L542.559 205H533.672L533.965 194.746ZM525.908 152.168L537.676 194.795L537.92 205H528.984L511.162 152.168H525.908ZM590.312 205.977C586.211 205.977 582.533 205.326 579.277 204.023C576.022 202.689 573.255 200.85 570.977 198.506C568.73 196.162 567.005 193.444 565.801 190.352C564.596 187.227 563.994 183.906 563.994 180.391V178.438C563.994 174.434 564.564 170.771 565.703 167.451C566.842 164.131 568.47 161.25 570.586 158.809C572.734 156.367 575.339 154.495 578.398 153.193C581.458 151.859 584.909 151.191 588.75 151.191C592.493 151.191 595.814 151.81 598.711 153.047C601.608 154.284 604.033 156.042 605.986 158.32C607.972 160.599 609.469 163.333 610.479 166.523C611.488 169.681 611.992 173.197 611.992 177.07V182.93H570V173.555H598.174V172.48C598.174 170.527 597.816 168.786 597.1 167.256C596.416 165.693 595.374 164.456 593.975 163.545C592.575 162.633 590.785 162.178 588.604 162.178C586.748 162.178 585.153 162.585 583.818 163.398C582.484 164.212 581.393 165.352 580.547 166.816C579.733 168.281 579.115 170.007 578.691 171.992C578.301 173.945 578.105 176.094 578.105 178.438V180.391C578.105 182.507 578.398 184.46 578.984 186.25C579.603 188.04 580.465 189.587 581.572 190.889C582.712 192.191 584.079 193.2 585.674 193.916C587.301 194.632 589.141 194.99 591.191 194.99C593.73 194.99 596.09 194.502 598.271 193.525C600.485 192.516 602.389 191.003 603.984 188.984L610.82 196.406C609.714 198.001 608.2 199.531 606.279 200.996C604.391 202.461 602.113 203.665 599.443 204.609C596.774 205.521 593.73 205.977 590.312 205.977ZM634.062 163.691V205H620V152.168H633.232L634.062 163.691ZM649.98 151.826L649.736 164.863C649.053 164.766 648.223 164.684 647.246 164.619C646.302 164.521 645.439 164.473 644.658 164.473C642.673 164.473 640.947 164.733 639.482 165.254C638.05 165.742 636.846 166.475 635.869 167.451C634.925 168.428 634.209 169.616 633.721 171.016C633.265 172.415 633.005 174.01 632.939 175.801L630.107 174.922C630.107 171.504 630.449 168.363 631.133 165.498C631.816 162.601 632.809 160.078 634.111 157.93C635.446 155.781 637.074 154.121 638.994 152.949C640.915 151.777 643.112 151.191 645.586 151.191C646.367 151.191 647.165 151.257 647.979 151.387C648.792 151.484 649.46 151.631 649.98 151.826ZM674.541 205H660.381V148.115C660.381 143.981 661.243 140.498 662.969 137.666C664.694 134.801 667.184 132.637 670.439 131.172C673.695 129.707 677.617 128.975 682.207 128.975C684.128 128.975 686.52 129.072 689.385 129.268C692.282 129.43 695.228 129.642 698.223 129.902C701.25 130.13 703.903 130.374 706.182 130.635L700.322 141.719C697.393 141.198 694.577 140.791 691.875 140.498C689.173 140.205 686.602 140.059 684.16 140.059C682.077 140.059 680.319 140.368 678.887 140.986C677.454 141.605 676.364 142.516 675.615 143.721C674.899 144.893 674.541 146.357 674.541 148.115V205ZM692.119 205V130.635H706.182V205H692.119ZM685.088 152.168V162.129H652.52V152.168H685.088ZM715.703 179.121V178.096C715.703 174.222 716.257 170.658 717.363 167.402C718.47 164.115 720.081 161.266 722.197 158.857C724.313 156.449 726.917 154.577 730.01 153.242C733.102 151.875 736.65 151.191 740.654 151.191C744.658 151.191 748.223 151.875 751.348 153.242C754.473 154.577 757.093 156.449 759.209 158.857C761.357 161.266 762.985 164.115 764.092 167.402C765.199 170.658 765.752 174.222 765.752 178.096V179.121C765.752 182.962 765.199 186.527 764.092 189.814C762.985 193.07 761.357 195.918 759.209 198.359C757.093 200.768 754.489 202.64 751.396 203.975C748.304 205.309 744.756 205.977 740.752 205.977C736.748 205.977 733.184 205.309 730.059 203.975C726.966 202.64 724.346 200.768 722.197 198.359C720.081 195.918 718.47 193.07 717.363 189.814C716.257 186.527 715.703 182.962 715.703 179.121ZM729.766 178.096V179.121C729.766 181.335 729.961 183.402 730.352 185.322C730.742 187.243 731.361 188.936 732.207 190.4C733.086 191.833 734.225 192.956 735.625 193.77C737.025 194.583 738.734 194.99 740.752 194.99C742.705 194.99 744.382 194.583 745.781 193.77C747.181 192.956 748.304 191.833 749.15 190.4C749.997 188.936 750.615 187.243 751.006 185.322C751.429 183.402 751.641 181.335 751.641 179.121V178.096C751.641 175.947 751.429 173.929 751.006 172.041C750.615 170.12 749.98 168.428 749.102 166.963C748.255 165.465 747.132 164.294 745.732 163.447C744.333 162.601 742.64 162.178 740.654 162.178C738.669 162.178 736.976 162.601 735.576 163.447C734.209 164.294 733.086 165.465 732.207 166.963C731.361 168.428 730.742 170.12 730.352 172.041C729.961 173.929 729.766 175.947 729.766 178.096ZM789.482 191.328L800.469 152.168H809.404L806.523 167.549L795.537 205H788.066L789.482 191.328ZM783.916 152.168L791.777 191.279L792.51 205H783.721L770.342 152.168H783.916ZM819.463 190.645L827.129 152.168H840.752L827.373 205H818.633L819.463 190.645ZM810.625 152.168L821.562 191.035L823.076 205H815.557L804.57 167.598L801.787 152.168H810.625Z" fill="black"/>
</svg>
